<svg xmlns="http://www.w3.org/2000/svg" width="160" height="28" viewBox="0 0 160 28">
    <g fill="none" fill-rule="evenodd">
        <g fill="#FFF">
            <path d="M36.448 21.946V5.683h11.575v3.678h-7.311v3.231h6.752v3.603h-6.752v5.75zM57.776 13.97a3.65 3.65 0 0 0-1.738-.348c-1.156 0-1.929.507-2.143 1.354v6.97h-4.21V10.027h4.21v1.06a3.298 3.298 0 0 1 2.756-1.325c.394-.016.787.056 1.148.212l-.023 3.996z"/>
            <path fill-rule="nonzero" d="M65.684 14.764c0-.923-.857-1.589-2.572-1.589a6.744 6.744 0 0 0-3.3.848v-3.338a9.748 9.748 0 0 1 4.318-.923c3.56 0 5.596 1.665 5.596 4.82v7.364h-4.042v-.605a4.632 4.632 0 0 1-2.84.817c-2.388 0-4.425-1.324-4.425-3.844 0-2.27 2.037-3.784 4.64-3.784a5.315 5.315 0 0 1 2.625.658v-.424zm0 3.156a1.883 1.883 0 0 0-1.692-.825c-.826 0-1.66.348-1.66 1.143 0 .794.834 1.165 1.66 1.165a1.938 1.938 0 0 0 1.692-.794v-.689z"/>
            <path d="M86.262 9.762c2.519 0 4.073 1.695 4.073 4.367v7.817h-4.21v-6.81c0-1.007-.43-1.719-1.363-1.719a1.572 1.572 0 0 0-1.531 1.272v7.257h-4.18v-6.81c0-1.007-.429-1.719-1.37-1.719a1.526 1.526 0 0 0-1.532 1.272v7.257h-4.21V10.027h4.21v.976a4.059 4.059 0 0 1 3.108-1.24 4.148 4.148 0 0 1 3.323 1.43 5.108 5.108 0 0 1 3.682-1.43z"/>
            <path fill-rule="nonzero" d="M95.931 16.936c.352 1.43 1.531 2.013 3.062 2.013a6.224 6.224 0 0 0 3.484-.953v3.193a7.168 7.168 0 0 1-4.157 1.06c-3.828 0-6.485-2.308-6.485-6.145 0-3.837 2.52-6.304 5.842-6.304 3.75 0 5.657 2.406 5.657 5.956v1.218l-7.403-.038zm.054-2.33h3.62a1.693 1.693 0 0 0-.515-1.208 1.733 1.733 0 0 0-1.23-.488c-.91 0-1.577.613-1.875 1.695z"/>
            <path d="M116.241 16.49l1.93-6.463h4.018l-3.88 11.919h-3.568l-1.715-6.054-1.715 6.054h-3.56l-3.889-11.919h4.18l1.906 6.463 1.822-6.463h2.68z"/>
            <path fill-rule="nonzero" d="M135.104 21.946h-4.195v-1.037a4.328 4.328 0 0 1-3.215 1.302c-2.657 0-4.241-1.718-4.241-4.374v-7.81h4.18v6.81c0 1.007.482 1.719 1.53 1.719.817.019 1.54-.52 1.746-1.302v-7.227h4.203l-.008 11.919zm-8.176-17.057a2.04 2.04 0 0 1 2.044 2.03 2.04 2.04 0 0 1-2.049 2.026 2.04 2.04 0 0 1-2.054-2.02c0-1.125.922-2.036 2.06-2.036zm4.716 0a2.058 2.058 0 0 1 1.88.974 2.008 2.008 0 0 1 0 2.1 2.058 2.058 0 0 1-1.88.974 2.038 2.038 0 0 1-1.926-2.024c0-1.072.844-1.959 1.926-2.024z"/>
            <path d="M145.455 13.97a3.656 3.656 0 0 0-1.746-.371 1.968 1.968 0 0 0-2.136 1.355v6.992h-4.21V10.027h4.21v1.06a3.298 3.298 0 0 1 2.733-1.325c.394-.016.787.056 1.149.212v3.996zM159.701 21.946h-4.715l-3.644-5.222v5.222h-4.21V4.73h4.21v9.838l3.43-4.503h4.822l-4.478 5.51z"/>
        </g>
        <path fill="#FFF" fill-rule="nonzero" d="M0 0h28.325v28H0z"/>
        <path fill="#D3CECE" d="M0 21.568h28.325v-.757H0z"/>
        <path fill="#D3CECE" d="M13.78 28h.765V0h-.765z"/>
        <path fill="#28353D" d="M6.507 28h.766V0h-.766z"/>
        <path fill="#28353D" d="M0 14.367h13.78v-.741H0z"/>
        <path fill="#D3CECE" d="M28.325 14.378v-.756H13.78v.756z"/>
        <path fill="#D3CECE" d="M21.053 28h.765V0h-.765z"/>
        <path fill="#28353D" d="M0 7.19h28.325v-.758H0z"/>
    </g>
</svg>
