<svg xmlns="http://www.w3.org/2000/svg" width="25" height="13" viewBox="0 0 25 13">
    <path fill="#7C868C" fill-rule="evenodd" d="M7.668.961A12.653 12.653 0 0 1 12.5 0c4.624 0 8.756 2.53 11.5 6.5-1.523 2.204-3.474 3.964-5.699 5.094l1.548 1.548-.707.707-1.81-1.81c-1.516.623-3.141.961-4.832.961C7.876 13 3.744 10.471 1 6.5c1.523-2.204 3.474-3.964 5.7-5.094L5-.293 5.707-1 7.668.961zm1.128 2.542A4.923 4.923 0 0 0 7.791 6.5c0 2.68 2.108 4.851 4.709 4.851 1.148 0 2.2-.423 3.018-1.126L13.8 8.508c-.372.256-.819.405-1.3.405-1.294 0-2.342-1.08-2.342-2.413 0-.47.13-.908.356-1.28L8.796 3.504zm.687-.728L11.2 4.493c.372-.256.819-.406 1.3-.406 1.294 0 2.342 1.08 2.342 2.413 0 .47-.13.909-.355 1.28l1.717 1.717A4.923 4.923 0 0 0 17.209 6.5c0-2.68-2.108-4.851-4.709-4.851-1.148 0-2.2.423-3.017 1.126z"/>
</svg>
